<svg xmlns="http://www.w3.org/2000/svg" xmlns:xlink="http://www.w3.org/1999/xlink" viewBox="0 0 458.15 317.33"><defs><style>.cls-1{fill:url(#linear-gradient);}</style><linearGradient id="linear-gradient" y1="158.67" x2="458.15" y2="158.67" gradientUnits="userSpaceOnUse"><stop offset="0" stop-color="#4f46e5"/><stop offset="1" stop-color="#14b8a6"/></linearGradient></defs><g id="Layer_2" data-name="Layer 2"><g id="Layer_1-2" data-name="Layer 1"><path class="cls-1" d="M33.79,79.08h27l4,16.67H94.43L65.06,5.18H31.2L0,95.75H29.5Zm12.32-49.2a41.93,41.93,0,0,0,.88-5h.64a76.31,76.31,0,0,0,1.83,10.17l6.31,24.63H38.47Q45.36,33.35,46.11,29.88Zm83.37,65.87h-26.9V0h26.9Zm39.86,0H142.43V0h26.91ZM33.79,189.08h27l4,16.67H94.43L65.06,115.18H31.2L0,205.75H29.5Zm12.32-49.2a44.15,44.15,0,0,0,.88-5h.63a78.07,78.07,0,0,0,1.84,10.17l6.31,24.63H38.47Q45.36,143.35,46.11,139.88ZM136.78,205a23,23,0,0,0,10.71,2.3,25.05,25.05,0,0,0,14.59-4.45A28.56,28.56,0,0,0,172,190.25a47.28,47.28,0,0,0,3.51-18.79q0-15.68-6.54-23.81T150.2,139.5a25.58,25.58,0,0,0-11.91,2.78,22.07,22.07,0,0,0-8.55,7.58h-.26V110h-26.9v95.75h26.9v-6.69h.26A19.26,19.26,0,0,0,136.78,205ZM129,175.5v-3.92a13.82,13.82,0,0,1,2.75-8.93,9,9,0,0,1,14-.16q2.49,3.28,2.49,9.79,0,7.32-2.65,11.34a8.5,8.5,0,0,1-7.52,4,7.86,7.86,0,0,1-6.63-3.29C129.8,182.15,129,179.21,129,175.5Zm128.6-3.22a32,32,0,0,0-4.52-16.8,30.76,30.76,0,0,0-12.95-11.75q-8.43-4.23-19.92-4.23a45.44,45.44,0,0,0-19.65,4,30.09,30.09,0,0,0-13.14,11.62A33.75,33.75,0,0,0,182.79,173q0,16,9.83,25.17t27.44,9.12q17.74,0,27.63-9.34T257.58,172.28Zm-37.27,15.35q-10.23,0-10.23-14.59,0-13.84,10.11-13.84t10.1,13.21Q230.29,187.62,220.31,187.63Zm88.49-46.55h26.91v64.67H308.8v-10h-.25a35.31,35.31,0,0,1-6,6.75,23.18,23.18,0,0,1-6.06,3.48,21.59,21.59,0,0,1-7.87,1.32q-10.6,0-16.17-6.88t-5.56-20.34v-39h26.91v37q0,9.54,7.14,9.54a7,7,0,0,0,5.9-2.59q2-2.59,2-7.33Zm69.29,66.25q-11.23,0-17.59-6.19t-6.35-17.62V159.71H344V141.08h10.16v-12.7l26.53-7.33v20h13.46v18.63H380.68V179.1q0,8.53,6.76,8.53a18.48,18.48,0,0,0,6.7-1.39v18.63a25.87,25.87,0,0,1-6,1.67A54.59,54.59,0,0,1,378.09,207.33ZM77.63,225.18h40.23v90.57H91V266.11q0-7,.45-15.41l.19-4.17h-.76q-2,10.68-3.1,14.78L74.41,315.75H48.76l-14-53.81q-.57-2-3-15.41h-.75q.89,21.22.88,26.53v42.69H8V225.18H48.89l12.44,49.2a58.24,58.24,0,0,1,1.17,6.16q.72,4.65.92,7.17h.37c.47-3.83,1.2-8.36,2.22-13.58Zm104.22,28.23q-7.14-3.91-17.18-3.91A36.21,36.21,0,0,0,146.76,254a29.7,29.7,0,0,0-12.25,12.48,39.24,39.24,0,0,0-4.14,18.38q0,15.15,9.41,23.81t26.34,8.65q13.95,0,23.75-3.91V296.36a44.75,44.75,0,0,1-17.81,3.6q-6.76,0-10.87-2.36a9.08,9.08,0,0,1-4.8-6.54h40V281a35.33,35.33,0,0,0-3.69-16.55A26.14,26.14,0,0,0,181.85,253.41ZM156.27,277a15.2,15.2,0,0,1,2.65-8.11,6.77,6.77,0,0,1,5.62-3.07q8,0,8,11.18ZM282.3,38.3H247.36v-7H282.3Zm46.9,0h-4.9v-7h4.9A126,126,0,0,1,366.76,37l-2.08,6.69A118.82,118.82,0,0,0,329.2,38.3Zm115.93,171,6.67,2.12a133,133,0,0,1-19.42,38.29l-5.65-4.13A126,126,0,0,0,445.13,209.27Zm13-45.45V169h-7v-5.15a128.76,128.76,0,0,0-4.92-35.4L453,126.5A136.09,136.09,0,0,1,458.15,163.82ZM397.72,274l4,5.74a126.63,126.63,0,0,1-38.85,18.37L361,291.39A119.23,119.23,0,0,0,397.72,274ZM428.94,91.58a124.59,124.59,0,0,0-28.12-29.37l4.19-5.6a131.47,131.47,0,0,1,29.71,31ZM285.31,295.71h35.06v7H285.31v6.67l-37.95-10.17L285.31,289ZM33.79,79.08h27l4,16.67H94.43L65.06,5.18H31.2L0,95.75H29.5Zm12.32-49.2a41.93,41.93,0,0,0,.88-5h.64a76.31,76.31,0,0,0,1.83,10.17l6.31,24.63H38.47Q45.36,33.35,46.11,29.88Zm83.37,65.87h-26.9V0h26.9Zm39.86,0H142.43V0h26.91ZM33.79,189.08h27l4,16.67H94.43L65.06,115.18H31.2L0,205.75H29.5Zm12.32-49.2a44.15,44.15,0,0,0,.88-5h.63a78.07,78.07,0,0,0,1.84,10.17l6.31,24.63H38.47Q45.36,143.35,46.11,139.88ZM136.78,205a23,23,0,0,0,10.71,2.3,25.05,25.05,0,0,0,14.59-4.45A28.56,28.56,0,0,0,172,190.25a47.28,47.28,0,0,0,3.51-18.79q0-15.68-6.54-23.81T150.2,139.5a25.58,25.58,0,0,0-11.91,2.78,22.07,22.07,0,0,0-8.55,7.58h-.26V110h-26.9v95.75h26.9v-6.69h.26A19.26,19.26,0,0,0,136.78,205ZM129,175.5v-3.92a13.82,13.82,0,0,1,2.75-8.93,9,9,0,0,1,14-.16q2.49,3.28,2.49,9.79,0,7.32-2.65,11.34a8.5,8.5,0,0,1-7.52,4,7.86,7.86,0,0,1-6.63-3.29C129.8,182.15,129,179.21,129,175.5Zm128.6-3.22a32,32,0,0,0-4.52-16.8,30.76,30.76,0,0,0-12.95-11.75q-8.43-4.23-19.92-4.23a45.44,45.44,0,0,0-19.65,4,30.09,30.09,0,0,0-13.14,11.62A33.75,33.75,0,0,0,182.79,173q0,16,9.83,25.17t27.44,9.12q17.74,0,27.63-9.34T257.58,172.28Zm-37.27,15.35q-10.23,0-10.23-14.59,0-13.84,10.11-13.84t10.1,13.21Q230.29,187.62,220.31,187.63Zm88.49-46.55h26.91v64.67H308.8v-10h-.25a35.31,35.31,0,0,1-6,6.75,23.18,23.18,0,0,1-6.06,3.48,21.59,21.59,0,0,1-7.87,1.32q-10.6,0-16.17-6.88t-5.56-20.34v-39h26.91v37q0,9.54,7.14,9.54a7,7,0,0,0,5.9-2.59q2-2.59,2-7.33Zm69.29,66.25q-11.23,0-17.59-6.19t-6.35-17.62V159.71H344V141.08h10.16v-12.7l26.53-7.33v20h13.46v18.63H380.68V179.1q0,8.53,6.76,8.53a18.48,18.48,0,0,0,6.7-1.39v18.63a25.87,25.87,0,0,1-6,1.67A54.59,54.59,0,0,1,378.09,207.33ZM77.63,225.18h40.23v90.57H91V266.11q0-7,.45-15.41l.19-4.17h-.76q-2,10.68-3.1,14.78L74.41,315.75H48.76l-14-53.81q-.57-2-3-15.41h-.75q.89,21.22.88,26.53v42.69H8V225.18H48.89l12.44,49.2a58.24,58.24,0,0,1,1.17,6.16q.72,4.65.92,7.17h.37c.47-3.83,1.2-8.36,2.22-13.58Zm104.22,28.23q-7.14-3.91-17.18-3.91A36.21,36.21,0,0,0,146.76,254a29.7,29.7,0,0,0-12.25,12.48,39.24,39.24,0,0,0-4.14,18.38q0,15.15,9.41,23.81t26.34,8.65q13.95,0,23.75-3.91V296.36a44.75,44.75,0,0,1-17.81,3.6q-6.76,0-10.87-2.36a9.08,9.08,0,0,1-4.8-6.54h40V281a35.33,35.33,0,0,0-3.69-16.55A26.14,26.14,0,0,0,181.85,253.41ZM156.27,277a15.2,15.2,0,0,1,2.65-8.11,6.77,6.77,0,0,1,5.62-3.07q8,0,8,11.18ZM282.3,38.3H247.36v-7H282.3Zm46.9,0h-4.9v-7h4.9A126,126,0,0,1,366.76,37l-2.08,6.69A118.82,118.82,0,0,0,329.2,38.3Zm115.93,171,6.67,2.12a133,133,0,0,1-19.42,38.29l-5.65-4.13A126,126,0,0,0,445.13,209.27Zm13-45.45V169h-7v-5.15a128.76,128.76,0,0,0-4.92-35.4L453,126.5A136.09,136.09,0,0,1,458.15,163.82ZM397.72,274l4,5.74a126.63,126.63,0,0,1-38.85,18.37L361,291.39A119.23,119.23,0,0,0,397.72,274ZM428.94,91.58a124.59,124.59,0,0,0-28.12-29.37l4.19-5.6a131.47,131.47,0,0,1,29.71,31ZM285.31,295.71h35.06v7H285.31v6.67l-37.95-10.17L285.31,289Z"/></g></g></svg>