<svg xmlns="http://www.w3.org/2000/svg" xmlns:xlink="http://www.w3.org/1999/xlink" viewBox="0 0 466.61 370.96"><defs><style>.cls-1{fill:url(#linear-gradient);}</style><linearGradient id="linear-gradient" y1="185.48" x2="466.61" y2="185.48" gradientUnits="userSpaceOnUse"><stop offset="0" stop-color="#14b8a6"/><stop offset="1" stop-color="#4f46e5"/></linearGradient></defs><g id="Layer_2" data-name="Layer 2"><g id="Layer_1-2" data-name="Layer 1"><path class="cls-1" d="M466.35,19.53,434,33l9.06,11.9a32,32,0,0,1,7.24,20.31,27.28,27.28,0,0,1-4.14,14.68,28.18,28.18,0,0,1-12.48,10.54q-8.34,3.89-21.28,3.88H399.08a14.27,14.27,0,0,1-5.69-1.23A9.48,9.48,0,0,1,389,89.39q-7,30.39-42.3,30.4-19.15,0-29.69-9.19T306.46,86.15a34.56,34.56,0,0,1,2.79-14.49,24.19,24.19,0,0,1,7.05-9.37,14.21,14.21,0,0,1,8.79-3.3,13.43,13.43,0,0,1,7.51,2.2,23.8,23.8,0,0,0-3.5,12.93q0,7.77,4.53,11.19t13.71,3.43q7.89,0,11.58-2.14a9.93,9.93,0,0,0,4.79-6.27A41.23,41.23,0,0,0,364.81,70q0-9.57-.65-24.38t-.65-21.15q0-12.81,3.95-18.63T381.23,0a28.78,28.78,0,0,1,9.45,1.29V51.23q0,7.62,2.13,10.28a7.56,7.56,0,0,0,6.27,2.65h16.69q6.6,0,6.08-3.1,0-2.72-4.53-8.15L402.45,34.54q-1.56-13.84,11-19.66l23.29-11A31,31,0,0,1,451,0q8.4,0,12.48,5.11T466.35,19.53ZM93.18,202.62h55.75a38.45,38.45,0,0,0,1-9.31q0-8.55-5.37-12.62t-17.78-4.07H105.72a11,11,0,0,1-1.29-5.43,8.06,8.06,0,0,1,2.65-6.28,9.77,9.77,0,0,1,6.79-2.39q8,0,9.83,8.41,7.5-.65,11.65-4.14c2.75-2.33,4.14-5.61,4.14-9.83a19.1,19.1,0,0,0-2.85-10,20.17,20.17,0,0,0-8.93-7.63q-6.08-2.91-16-2.91-13.85,0-22.63,8.67a27.86,27.86,0,0,0-8.8,20.56,27.49,27.49,0,0,0,2.07,11H71.44a34.3,34.3,0,0,0-.9,7.5q0,9.45,4.78,14T93.18,202.62Zm119.91,35.44a12.79,12.79,0,0,0-8.73,3q-3.44,3-3.43,8.54a19.43,19.43,0,0,0,2.33,8.92,19.77,19.77,0,0,0,9.31,2.46c3.8,0,6.66-1.08,8.6-3.23s2.91-5.09,2.91-8.8a25.28,25.28,0,0,0-1.81-8.93A23.78,23.78,0,0,0,213.09,238.06Zm-17.4,19.67q2.91-3.24,2.91-8.8a25.28,25.28,0,0,0-1.81-8.93,23.81,23.81,0,0,0-9.18-1.94,12.83,12.83,0,0,0-8.74,3q-3.42,3-3.42,8.54a19.41,19.41,0,0,0,2.32,8.92,19.81,19.81,0,0,0,9.32,2.46Q192.77,261,195.69,257.73Zm50.77-53.43H360.28a27.5,27.5,0,0,0,12.35-2.91,23.9,23.9,0,0,0,9.9-9.77,19.67,19.67,0,0,0,6.59,9.38,15.44,15.44,0,0,0,9.45,3.3,20.38,20.38,0,0,0,12.09-3.43,22.7,22.7,0,0,0,7.57-9.37,19.71,19.71,0,0,0,6.47,9.37q4.4,3.44,11.64,3.43,11.25,0,18.17-9.64t6.92-26.84a64.8,64.8,0,0,0-2.65-18.69A46.52,46.52,0,0,0,452.25,135q-8.92,0-14,3.81t-5,8.73a28,28,0,0,0,1.81,9.45,38.75,38.75,0,0,1,2.32,11.9c.09,3.54-1.25,5.3-4,5.3A5.69,5.69,0,0,1,428,170.8q-1.75-3.36-1.75-12v-8.15a18.38,18.38,0,0,0-10-2.59q-6.46,0-10.22,3.11a9.8,9.8,0,0,0-3.75,7.89q.39,4.65.39,8.4a11,11,0,0,1-.91,5,3.34,3.34,0,0,1-3.23,1.68q-2.85,0-4.47-3.36t-1.61-12v-8.15q-3.75-2.6-10-2.59-7,0-10.48,3.62a11.47,11.47,0,0,0-3.49,8.15c.25,2.51.38,5.13.38,7.89a6.1,6.1,0,0,1-1.87,4.79c-1.25,1.12-3.52,1.68-6.79,1.68H246.46a53,53,0,0,1-9.83-1l-10.22-1.94a23.13,23.13,0,0,0-5-.65q-7.25,0-12,6.86a26.89,26.89,0,0,0-4.72,15.65l6.86,2.33a26.3,26.3,0,0,1,6.66,2.91,3.8,3.8,0,0,1,1.62,3.17c0,1.81-1.26,3.21-3.76,4.2s-7.15,1.49-14,1.49q-11.39,0-15.91-3.3t-4.52-9.64a25.26,25.26,0,0,1,.9-6.4,18.81,18.81,0,0,1,2.59-5.89q-3.1-2.32-8.8-2.33-7.75,0-12.87,6.67t-5.11,17q0,15.14,10.35,24.38t31.43,9.25q19.15,0,30.21-8.93t11.06-22.25a16.24,16.24,0,0,0-.26-3.1A10.51,10.51,0,0,0,246.46,204.3Zm163.1-101.8a12,12,0,0,0-8.15,2.78c-2.15,1.85-3.23,4.51-3.23,8a17.69,17.69,0,0,0,2.2,8.41,19.44,19.44,0,0,0,8.79,2.2q5.18,0,8-3a11.7,11.7,0,0,0,2.78-8.21,22.46,22.46,0,0,0-1.81-8.28A21.67,21.67,0,0,0,409.56,102.5Zm-21.92,24.12q-3.43,2.91-3.43,8.48a19.31,19.31,0,0,0,2.33,8.92,19.89,19.89,0,0,0,9.18,2.33q5.56,0,8.47-3.23a12.49,12.49,0,0,0,2.91-8.67,24.29,24.29,0,0,0-1.81-8.8,22.86,22.86,0,0,0-9.05-1.94A12.81,12.81,0,0,0,387.64,126.62ZM410,134.71a19.4,19.4,0,0,0,2.33,8.92,19.8,19.8,0,0,0,9.18,2.33q5.57,0,8.48-3.23a12.49,12.49,0,0,0,2.91-8.67,24.5,24.5,0,0,0-1.81-8.8,22.91,22.91,0,0,0-9.06-1.94,12.81,12.81,0,0,0-8.6,2.91Q409.94,129.14,410,134.71ZM296.38,348.06a12.84,12.84,0,0,0-8.73,3q-3.43,3-3.43,8.54a19.31,19.31,0,0,0,2.33,8.92,19.77,19.77,0,0,0,9.31,2.46q5.68,0,8.6-3.23t2.91-8.8a25.28,25.28,0,0,0-1.81-8.93A23.78,23.78,0,0,0,296.38,348.06Zm-25.49,0a12.88,12.88,0,0,0-8.73,3c-2.28,2-3.43,4.83-3.43,8.54a19.43,19.43,0,0,0,2.33,8.92,19.81,19.81,0,0,0,9.32,2.46q5.69,0,8.6-3.23t2.91-8.8a25.28,25.28,0,0,0-1.81-8.93A23.86,23.86,0,0,0,270.89,348.06Zm77.62-116.87c-2.51,2.2-3.75,5.33-3.75,9.38a21.51,21.51,0,0,0,2.58,9.83A22.27,22.27,0,0,0,357.56,253q6.07,0,9.38-3.56t3.3-9.64a26.19,26.19,0,0,0-2.07-9.7,25,25,0,0,0-10.09-2.2A14,14,0,0,0,348.51,231.19Zm108.92,46a61,61,0,0,1-28.46,7q-8.93,0-12.81-3a9.1,9.1,0,0,1-3.88-7.51,8.48,8.48,0,0,1,2.91-6.85,11.32,11.32,0,0,1,7.57-2.46q8.92,0,10.73,8.67,7.25-.65,11.52-4.21t4.27-9.89a18.37,18.37,0,0,0-2.91-9.77,22,22,0,0,0-8.93-7.83q-6-3.1-15.33-3.1-15.66,0-24.84,8.93a29.16,29.16,0,0,0-9.18,21.73q0,9,4.79,15.26H379.29c-4,0-6.77-1-8.4-2.84s-2.46-5.74-2.46-11.52v-12a18.57,18.57,0,0,0-9.83-2.46q-8.28,0-12.42,3.56a12.07,12.07,0,0,0-4.14,9.64,40.32,40.32,0,0,0,.26,5,42.38,42.38,0,0,1,.26,5q.12,5.7-7.89,5.69h-4.92a53,53,0,0,1-9.83-1l-10.22-1.94a23.2,23.2,0,0,0-5-.65q-7.25,0-12,6.86A26.89,26.89,0,0,0,288,303.05l6.86,2.33a26.3,26.3,0,0,1,6.66,2.91,3.82,3.82,0,0,1,1.61,3.17q0,2.71-3.75,4.2t-14,1.49q-11.38,0-15.91-3.3t-4.53-9.64a25.3,25.3,0,0,1,.91-6.4,18.58,18.58,0,0,1,2.59-5.89c-2.07-1.55-5-2.33-8.8-2.33q-7.75,0-12.87,6.67t-5.11,17q0,15.14,10.35,24.38t31.43,9.25q19.14,0,30.21-8.93t11.06-22.25a16.24,16.24,0,0,0-.26-3.1,10.48,10.48,0,0,0,5.29,1.68h3.5A49.16,49.16,0,0,0,348.9,312a23.48,23.48,0,0,0,11.64-8.66,8.59,8.59,0,0,1,.64,1.29,18.69,18.69,0,0,0,7.05,7.24,22.22,22.22,0,0,0,11.06,2.46h9.06q29.1,0,44.95-2.07t22.31-7.89a18,18,0,0,0,5.18-7.82,25.5,25.5,0,0,0,1.29-7.31,17.72,17.72,0,0,0-1.36-7.38A13.37,13.37,0,0,0,457.43,277.18ZM129,59.72h4.91v-7H129a125.81,125.81,0,0,0-37.56,5.71l2.09,6.68A119.07,119.07,0,0,1,129,59.72ZM7,185.24a128.89,128.89,0,0,1,4.92-35.41l-6.73-1.92A136.17,136.17,0,0,0,0,185.24v5.15H7ZM210.79,52.72H175.86v7h34.93ZM6.35,232.8a133.27,133.27,0,0,0,19.42,38.3L31.42,267A126.47,126.47,0,0,1,13,230.68Zm50.06,68.39a126.63,126.63,0,0,0,38.85,18.37l1.87-6.75a119.34,119.34,0,0,1-36.7-17.36ZM53.15,78a131.08,131.08,0,0,0-29.71,31l5.77,4A124.25,124.25,0,0,1,57.34,83.63Zm119.7,239.09H137.78v7h35.07v6.67l37.94-10.17-37.94-10.16Z"/></g></g></svg>