<svg xmlns="http://www.w3.org/2000/svg" xmlns:xlink="http://www.w3.org/1999/xlink" viewBox="0 0 550.05 454.64"><defs><style>.cls-1{fill:url(#linear-gradient);}</style><linearGradient id="linear-gradient" y1="227.32" x2="550.05" y2="227.32" gradientUnits="userSpaceOnUse"><stop offset="0" stop-color="#4f46e5"/><stop offset="1" stop-color="#14b8a6"/></linearGradient></defs><g id="Layer_2" data-name="Layer 2"><g id="Layer_1-2" data-name="Layer 1"><path class="cls-1" d="M235.21,285.28c15.52,10.07,32.23,10.84,49.08,4,13.41-5.42,24.4-18.3,23.88-35.58-.76-4-1-8.26-2.39-12.08-4.32-12-13.07-19.63-25-24a49.55,49.55,0,0,0-22.11-2.54c-18.11,1.82-31.91,10.08-38.08,28-1.41,4.09-1.26,8.84-1.26,13.28C219.36,268.88,224.94,278.61,235.21,285.28Zm28.56-48.37c10.1.27,17.06,7.62,16.78,17.75s-7.76,17.17-17.7,17-16.72-7.77-16.49-18.08A16.54,16.54,0,0,1,263.77,236.91Zm255-86.77a43.91,43.91,0,0,1-1.78-4.09l9.15-5.24c12.58,19.67,20.19,40.37,24,63.73l-10.21,1.71a53.94,53.94,0,0,1-2-6.11A164.44,164.44,0,0,0,518.72,150.14Zm-353.59,231c-19.45,10-26.85,31-18.12,49.94,6,13,16.4,21.22,31,23,15.22,1.88,29.27-.45,40.26-12.39a78.28,78.28,0,0,0,4.69-6.33c-6-3-11.06-5.48-16.11-7.91-2-.94-3.65-.11-5,1.26-5,5.22-11.38,5.64-18,5.17a14.11,14.11,0,0,1-11.17-6.64,9.34,9.34,0,0,1-1.56-6.5c.6-2.57,3.6-1.75,5.66-1.76,13.15-.07,26.31,0,39.47,0,1.33,0,2.67.05,4-.06,3.28-.29,4-1.07,4-4.44,0-2-.37-4-.53-6-.82-10.45-5.43-18.94-14.05-24.74C195.43,374.17,180.24,373.31,165.13,381.09Zm7.09,22.83c-.72-6.06,4.08-10.31,12.29-10.89,7.45-.53,13.14,3.91,13.48,10.5C194.46,405.19,177.06,405.45,172.22,403.92Zm377-140c1.24,12.23-13.05,50.36-23.32,63.33a13.48,13.48,0,0,1-2.07-.69c-8.6-4.7-7.11-4.93-3.48-11.48,8-14.45,14.16-29.68,17.19-46a45.16,45.16,0,0,1,1.27-4.83,15,15,0,0,1,1.35-2.29ZM169.62,123.82c-1.39-4.59-1.47-118.29-.1-123.33A157.44,157.44,0,0,1,193.31.41c1.38,4.64,1.42,118.28,0,123.51A181.4,181.4,0,0,1,169.62,123.82Zm238,111.92c0-5.66-.12-10.77.12-15.86,0-.92,1.54-1.83,2.47-2.61.32-.27,1-.15,1.46-.2,6.69-.69,6.7-.69,6.71-7.26,0-4.66,0-9.32,0-14,0-1.78.33-3.55.52-5.38a18.13,18.13,0,0,1,3.26-.68c5.66-.06,11.32-.12,17,0,3.75.07,4.29.63,4.4,4.43.13,4.49.05,9,.06,13.49,0,1.49,0,3,0,4.49.23,3.94.89,4.6,4.76,4.78,1.83.09,3.67,0,5.5.06,1.6.09,3.2.35,5.15.58v17.66c-3.15,1.45-6.18.85-9.12.94-5.23.18-5.72.56-5.77,5.77-.07,6.31,0,12.63,0,18.94a18.78,18.78,0,0,0,.45,4c.93,3.87,2.87,5.27,6.83,5,1.46-.09,2.92-.31,4.75-.51.72,2,1.46,3.78,2,5.64,1.15,3.64,2.22,7.3,3.31,11,.55,1.85,0,3.09-1.74,4.14-8.46,5.15-24,4.54-32-1.39A21.56,21.56,0,0,1,419.36,274a113.47,113.47,0,0,1-1-13.42c-.17-6.49,0-13-.11-19.47-.06-3.65-.79-4.32-4.33-4.77C412.16,236.09,410.35,236,407.57,235.74ZM286.71,404.3q13.37-6.74,26.8-13.32a31.83,31.83,0,0,1,3.64-1.17c.19,2.69.32,4.64.46,6.58.26,3.67.78,4.3,4.55,4.39,5.32.12,10.65,0,16,0,10.15,0,20.31,0,30.46,0,6.25,0,6.91.71,6.58,6.88a34.22,34.22,0,0,1-.68,3.77c-2.23.18-4.33.51-6.43.51-14.15,0-28.3,0-42.45,0-1.33,0-2.67-.05-4,.05-3.2.23-3.71.74-4,3.86-.09,1.15,0,2.33-.09,3.49-.06,1-.22,1.93-.44,3.67-11.43-4.9-21.95-10.66-33.19-16.23A16.58,16.58,0,0,1,286.71,404.3Zm86.88-186.41a18.31,18.31,0,0,1,3.65-.83c5.82-.07,11.64-.11,17.46,0,3.36.06,4.39.74,4.36,3.48-.18,15.62,1.15,31.27-.84,46.84a39.22,39.22,0,0,1-2.07,7.67c-3.5,10.1-11.56,14.62-21.28,16.73-11,2.39-22.15,2.73-33.14-.06-12.75-3.23-20.28-10-22.42-23.61a89.61,89.61,0,0,1-.8-12.91c-.11-10.81-.07-21.62,0-32.43,0-5.22.55-5.7,5.74-5.75,5-.05,10-.07,15,0,4.37.07,5,.73,5,5.45.08,10.81,0,21.62.12,32.43a37.79,37.79,0,0,0,1.26,8.84c1.45,5.67,4.52,8,10.33,8.28a60.19,60.19,0,0,0,7-.12,9,9,0,0,0,8.14-6.4,42.28,42.28,0,0,0,2.11-11.68c.29-10,.09-20,.12-29.94C373.31,222,373.48,220,373.59,217.89ZM452.8,87.09c-9.31-4.94-19.23-8.72-29.31-13.21.76-2.9,1.41-5.46,2.13-8a4.63,4.63,0,0,1,.79-1.17c11-.55,54.63,23,59.62,32-1.8,2.33-3.77,4.86-5.73,7.38C470.81,98.14,462.11,92,452.8,87.09ZM317.49,61.28a27,27,0,0,1,.2-3,13.06,13.06,0,0,1,.86-2.11c18.66-.28,37.21-.1,56.21-.14V67.13c-2.75.25-5.34.68-7.93.69q-21.49.11-43,0C317.78,67.85,317.38,67.41,317.49,61.28ZM29,123.88c2.38-6.49,4.65-12.55,6.82-18.64,1.58-4.44,2.06-4.93,6.77-4.95q17.74-.06,35.47,0c1.62,0,3.23.29,4.8.44,3.07,8,6,15.51,8.81,22.76,6.11,1.1,24,.93,28.31-.31-.45-1.52-.78-3.09-1.37-4.55Q103,79.75,87.36,40.9c-4.16-10.34-8.42-20.64-12.46-31-1.33-3.42-3.34-5-7.1-4.8-5.15.24-10.33.19-15.48,0C49,5,47.1,6.37,45.91,9.41c-2.6,6.66-5.43,13.23-8.1,19.86Q21,70.91,4.28,112.57C2.87,116.07,1.62,119.64,0,124,10.11,124.35,19.47,124.41,29,123.88ZM60.76,43.57c4.48,10.61,8.35,21,12.47,32.19a138.35,138.35,0,0,1-24.92,0C48.71,71.08,57.82,47.29,60.76,43.57ZM106.21,254.4Q94.84,226.19,83.5,197.94c-3-7.55-6.17-15.07-9.26-22.6-.64-1.54-1.18-3.27-3.28-3.28-7.62,0-15.25,0-22.82,0-.91,1.75-1.7,3-2.26,4.4q-9.06,22.14-18,44.33Q15,252.45,2.31,284.15a53,53,0,0,0-1.69,6.22c1.2.52,1.94,1.12,2.66,1.11,7.65-.09,15.29-.28,22.94-.45,2.15,0,3.22-1.38,3.9-3.26,1.77-4.84,3.64-9.65,5.39-14.49,2-5.41,2-5.49,7.87-5.51q17.23-.06,34.47,0c1.63,0,3.26.22,5.06.35.93,2.16,1.85,4.1,2.6,6.1,1.71,4.51,3.33,9,5,13.58.81,2.21,2.13,3.58,4.77,3.58,6.82,0,13.64.19,20.46.22A29.3,29.3,0,0,0,120,291a32.52,32.52,0,0,0-1.07-5.11C114.75,275.34,110.44,264.89,106.21,254.4ZM47.33,243.19c4-11.37,7.85-22,12.39-32.4l1.37-.07c4,10.61,8.09,21.21,12.45,32.63A163.74,163.74,0,0,1,47.33,243.19ZM123,333.61a35.29,35.29,0,0,1,3.62.43c2,7.29,11.3,112.74,10.37,117.63-.49.23-1.07.74-1.66.75-7,.11-14,.16-21,.2-2.79,0-3.65-1.7-3.84-4.19-.59-7.95-1.25-15.9-1.9-23.86q-1.56-19.12-3.14-38.26a3.4,3.4,0,0,0-1.34-2.47c-1.47,3.94-3,7.87-4.39,11.84q-9.06,25.88-18.06,51.78c-1.36,3.91-1.67,4.22-5.61,4.31s-7.63,0-11.73,0c-5-11.34-8.29-23-12.47-34.35C47.79,406.31,44.24,395,40,383.93l-1.15.14c-.37,3.55-.82,7.1-1.12,10.65Q35.82,417.34,34,440c-.24,3-.41,6-.54,9-.09,2.14-1,3.6-3.25,3.61-7.31,0-14.63,0-21.95-.11a6,6,0,0,1-1.93-.85,19.82,19.82,0,0,1-.18-2.94c1.13-13.24,2.24-26.49,3.47-39.72,1.11-12.08,2.43-24.14,3.52-36.23.93-10.26,1.66-20.54,2.47-30.82.11-1.33.06-2.67.25-4,.45-3.23,1.26-4.18,4.43-4.24,7.32-.14,14.65,0,22-.06,2.85,0,4.12,1.64,5,4,4.08,10.73,8.21,21.43,12.3,32.14,3.5,9.17,7,18.35,10.48,27.5a23,23,0,0,0,2.28,3.48c2.57-6.58,4.86-12.4,7.12-18.23,5.78-14.87,11.63-29.71,17.25-44.64,1.2-3.18,3-4.39,6.28-4.3C109.67,333.71,116.33,333.57,123,333.61Zm2.55-214.76q0-56.61,0-113.23c0-1.47.18-2.95.31-4.91C134.2-.52,142.37.25,150.31.19c1.43,4.61,1.59,118,.22,123.68H126.06C125.86,122,125.55,120.43,125.54,118.85ZM483.74,368.5c2.67,3.61,2.67,4.27-.75,6.9-3.95,3-8,6-12.18,8.67a169.86,169.86,0,0,1-39,18.67,49.29,49.29,0,0,1-5.58,1.13c-1.09-3.16-2-5.91-3.15-9.15a35.4,35.4,0,0,1,5-2.64A167.21,167.21,0,0,0,476.57,366c.9-.69,1.92-1.22,3.22-2.05C481.19,365.55,482.58,366.94,483.74,368.5ZM131.63,291.65c3.83,0,7.67,0,11.5,0,7.15,0,7.15,0,9-6.93a27,27,0,0,1,2.9,1.8c12.91,10.29,32.15,8.81,43.81-1.46,13.37-11.77,16.32-27,11.74-43.27-7.79-27.57-37.39-33.36-56-20.56a26.39,26.39,0,0,1-2.87,1.39c-.13-2.48-.32-4.4-.32-6.31,0-14.32,0-28.64,0-43,0-1.91-.34-3.82-.55-6a183.73,183.73,0,0,0-25.06.13c-.12,2.69-.29,4.82-.29,6.95q0,48.71,0,97.41c0,4.49,0,9,0,13.49C125.55,291.36,125.78,291.59,131.63,291.65Zm36.13-54.76c10.22,0,18,7.54,17.43,17.65-.55,9.88-6.45,16.9-17.57,17.11a16.88,16.88,0,0,1-16.87-17.25C150.78,244.1,157.79,236.88,167.76,236.89Z"/></g></g></svg>